<svg width="212" height="83" viewBox="0 0 212 83" fill="none" xmlns="http://www.w3.org/2000/svg">
<g clip-path="url(#clip0_142_2005)">
<path d="M116.479 19.9393C112.99 16.3749 108.344 14.5659 102.7 14.5659C95.629 14.5659 89.4602 17.2191 84.3017 22.4586V15.3431H80.4361C76.4358 15.3431 73.1898 18.5725 73.1898 22.5524V38.5386H44.5011V0.0804443H40.6356C36.6353 0.0804443 33.3893 3.30986 33.3893 7.28968V45.1047C33.3893 48.2269 32.6485 50.2369 31.1266 51.2687C30.278 51.8315 27.9748 52.7963 22.2506 52.7963C16.5263 52.7963 13.9403 51.6975 13.0648 51.0409C11.7718 50.0761 11.1253 48.0795 11.1253 45.1047V27.6846H7.24625C5.30674 27.6846 3.48844 28.435 2.11461 29.8018C0.754257 31.1686 0 32.9776 0 34.9072V45.2253C0 50.9739 1.88564 55.4897 5.61652 58.6655C8.9972 61.5465 13.4823 63.0205 18.9642 63.0205H25.6043C31.1939 63.0205 35.7464 61.4929 39.1405 58.4913C41.9017 56.0123 43.6122 52.7427 44.2452 48.7629H112.883C115.091 48.7629 117.018 47.9723 118.634 46.4313C120.398 44.7295 121.301 42.5989 121.301 40.1064V32.1736C121.301 27.296 119.671 23.1688 116.479 19.9393ZM110.175 38.5386H85.7967C88.2346 33.3126 91.1842 29.5338 94.5649 27.2826C96.9355 25.7416 99.4676 24.9644 102.094 24.9644C104.451 24.9644 106.31 25.5004 107.791 26.5724C109.381 27.765 110.135 29.3864 110.175 31.6376V38.5386Z" fill="black"/>
<path d="M139.309 0V41.4062C139.309 45.3726 136.063 48.6154 132.063 48.6154H128.049V7.19584C128.049 3.22942 131.308 0 135.295 0H139.309Z" fill="black"/>
<path d="M182.26 29.0514C182.26 32.1468 181.466 35.068 180.092 37.614L178.92 39.49L165.721 60.5147C164.091 63.1009 160.67 63.8915 158.07 62.2701L153.356 59.3355L159.323 49.8349L161.249 46.793L169.788 33.2054L169.815 33.1652L169.842 33.1116C170.031 32.8436 170.206 32.5622 170.367 32.2808C170.866 31.316 171.149 30.2306 171.149 29.0782C171.149 27.4032 170.542 25.8621 169.532 24.6561C169.438 24.5623 169.344 24.4551 169.263 24.3613C169.249 24.3345 169.236 24.3211 169.209 24.3077C169.182 24.2809 169.169 24.2541 169.142 24.2407C169.142 24.2407 169.128 24.2273 169.115 24.2139C169.061 24.1603 169.007 24.0933 168.953 24.0531C168.872 23.9727 168.792 23.9057 168.697 23.8253C168.603 23.7315 168.495 23.6511 168.387 23.5707C168.091 23.3429 167.795 23.1419 167.458 22.9811C167.31 22.9007 167.175 22.8203 167.027 22.7667C166.973 22.7399 166.933 22.7131 166.879 22.6997C166.839 22.6863 166.798 22.6595 166.758 22.6461C166.731 22.6327 166.69 22.6193 166.663 22.6059C166.583 22.5791 166.515 22.5523 166.434 22.5255C166.259 22.4585 166.071 22.4049 165.896 22.3647C165.68 22.3111 165.451 22.2709 165.236 22.2307C165.141 22.2173 165.034 22.2039 164.926 22.2039C164.832 22.1905 164.751 22.1771 164.657 22.1771C164.495 22.1771 164.347 22.1637 164.172 22.1637C162.151 22.1637 160.347 23.0213 159.08 24.3881C158.501 25.0179 158.03 25.7549 157.707 26.5723C157.41 27.3361 157.235 28.1938 157.235 29.0648C157.235 29.8822 157.383 30.6594 157.639 31.383C157.666 31.4768 157.707 31.5706 157.734 31.651C157.787 31.8118 157.855 31.9592 157.936 32.0932C157.976 32.2004 158.03 32.2942 158.097 32.4014C158.178 32.5488 158.259 32.6962 158.353 32.8302C158.582 33.192 158.852 33.527 159.148 33.8352C159.417 34.1166 159.727 34.3846 160.05 34.6258C160.131 34.6794 160.198 34.7464 160.279 34.7866C160.373 34.8402 160.468 34.9072 160.562 34.9742C160.656 35.0412 160.751 35.0948 160.858 35.135C161.195 35.3226 161.559 35.47 161.936 35.604C161.99 35.6174 162.03 35.6308 162.084 35.6576L156.104 45.185C156.104 45.185 155.996 45.1314 155.942 45.1046C155.673 44.9706 155.403 44.8366 155.148 44.6758C155.053 44.6222 154.959 44.5686 154.851 44.515C154.784 44.4748 154.717 44.4346 154.649 44.3944C154.447 44.2738 154.245 44.1398 154.03 44.0058C153.774 43.8316 153.531 43.6574 153.275 43.4698C152.993 43.2554 152.723 43.041 152.454 42.8132C152.427 42.7864 152.4 42.7596 152.373 42.7328C152.117 42.5184 151.861 42.2906 151.619 42.0628C151.605 42.0494 151.592 42.036 151.578 42.0226C151.322 41.768 151.066 41.5134 150.824 41.2588C150.568 40.9908 150.339 40.7094 150.097 40.428C149.881 40.16 149.679 39.892 149.477 39.6106C149.248 39.289 149.019 38.9674 148.817 38.619C147.08 35.8586 146.083 32.6024 146.083 29.105C146.083 19.1755 154.178 11.1221 164.158 11.1221C164.791 11.1221 165.411 11.1489 166.017 11.2159C166.421 11.2561 166.812 11.3097 167.202 11.3767C169.034 11.6849 170.771 12.2745 172.374 13.0919C172.698 13.2527 173.021 13.4269 173.331 13.6145C173.64 13.8021 173.95 13.9897 174.246 14.1907C174.422 14.3113 174.597 14.4319 174.772 14.5525C174.785 14.5659 174.812 14.5793 174.826 14.5927C174.839 14.5927 174.853 14.6195 174.866 14.6195C174.92 14.6597 174.974 14.6999 175.028 14.7535C175.028 14.7535 175.032 14.7535 175.041 14.7535C175.041 14.7535 175.055 14.7535 175.068 14.7669C175.081 14.7669 175.095 14.7937 175.108 14.7937C175.203 14.8741 175.297 14.9411 175.391 15.0215C175.647 15.2225 175.903 15.4369 176.146 15.6647C176.294 15.7853 176.428 15.9193 176.563 16.0399C176.832 16.2945 177.075 16.5491 177.331 16.8037C177.439 16.9243 177.546 17.0315 177.641 17.1655C177.762 17.3129 177.896 17.4335 178.004 17.5809C178.031 17.6077 178.058 17.6479 178.072 17.6747C178.22 17.8355 178.341 18.0097 178.476 18.1705C178.543 18.2643 178.61 18.3447 178.664 18.4251C178.745 18.5189 178.812 18.6261 178.866 18.7199C178.907 18.7601 178.947 18.8137 178.961 18.8673C178.987 18.9075 179.028 18.9611 179.055 19.0147C179.216 19.2425 179.378 19.4971 179.526 19.7383C181.21 22.4719 182.18 25.6745 182.18 29.0916L182.26 29.0514Z" fill="#15CB95"/>
<path d="M55.1821 67.4425L59.0342 80.923L63.3308 67.4425H64.8527L59.6672 82.7052H58.3338L54.4278 69.3185L50.5219 82.7052H49.2423L44.0029 67.4425H45.5114L49.8484 80.923L53.6601 67.4425H55.1821Z" fill="#15CB95"/>
<path d="M76.4897 82.7186H75.6681L75.4526 81.4858C74.3751 82.5042 73.082 83 71.6005 83C70.523 83 69.634 82.6918 68.974 82.0888C68.3006 81.4724 67.9639 80.6684 67.9639 79.6768C67.9639 77.171 69.7418 75.9114 73.2975 75.9114H75.3583V75.7238C75.3583 73.5798 74.3212 72.5212 72.2604 72.5212C71.2099 72.5212 70.1728 72.883 69.1626 73.6066L68.7047 72.9366C69.6744 71.9718 70.954 71.4894 72.5298 71.4894C73.8094 71.4894 74.7926 71.878 75.4795 72.6552C76.1664 73.4324 76.5166 74.5446 76.5166 75.9918V82.7186H76.4897ZM75.3448 76.8762H73.4726C71.9507 76.8762 70.8731 77.0772 70.2132 77.4792C69.5532 77.8812 69.2299 78.5512 69.2299 79.5026C69.2299 80.2798 69.4724 80.8828 69.9438 81.3116C70.4152 81.7404 71.0752 81.9682 71.9237 81.9682C72.5972 81.9682 73.2706 81.8074 73.9306 81.4724C74.5906 81.1374 75.062 80.7488 75.3313 80.2798V76.8762H75.3448Z" fill="#15CB95"/>
<path d="M88.2208 73.0839C87.4396 72.6953 86.5776 72.5077 85.6079 72.5077C84.8806 72.5077 84.3014 72.6551 83.8839 72.9633C83.4663 73.2715 83.2508 73.7003 83.2508 74.2363C83.2508 74.8125 83.4259 75.2547 83.7896 75.5629C84.1532 75.8711 84.8671 76.1927 85.9311 76.5277C87.2107 76.9297 88.1131 77.3853 88.6384 77.8812C89.1636 78.377 89.4196 79.047 89.4196 79.8778C89.4196 80.789 89.0694 81.5394 88.3555 82.1156C87.6417 82.6918 86.7258 82.9866 85.6213 82.9866C84.234 82.9866 83.0084 82.6248 81.9578 81.9012L82.2676 81.2446C83.2239 81.7136 84.234 81.9414 85.2981 81.9414C87.2107 81.9414 88.1535 81.2312 88.1535 79.8242C88.1535 79.2882 87.9515 78.8594 87.5474 78.5378C87.1433 78.2028 86.4025 77.8812 85.3385 77.5596C83.0757 76.8627 81.9443 75.7773 81.9443 74.2765C81.9443 73.4591 82.2676 72.7757 82.9141 72.2531C83.5606 71.7171 84.3957 71.4625 85.4058 71.4625C86.5507 71.4625 87.6013 71.7707 88.5576 72.4005L88.1939 73.0705L88.2208 73.0839Z" fill="#15CB95"/>
<path d="M94.7939 68.0187C94.7939 67.7775 94.8748 67.5765 95.0499 67.4023C95.225 67.2281 95.427 67.1477 95.6694 67.1477C95.9119 67.1477 96.1139 67.2281 96.289 67.4023C96.4641 67.5765 96.5449 67.7775 96.5449 68.0187C96.5449 68.2599 96.4641 68.4609 96.289 68.6351C96.1139 68.8093 95.9119 68.8897 95.6694 68.8897C95.427 68.8897 95.225 68.8093 95.0499 68.6351C94.8748 68.4609 94.7939 68.2599 94.7939 68.0187ZM96.2217 71.7573V82.7052H95.0768V71.7573H96.2217Z" fill="#15CB95"/>
<path d="M103.764 67.1611V82.7186H102.619V67.7909L103.764 67.1611Z" fill="#15CB95"/>
<path d="M124.305 69.1041C123.389 68.5949 122.338 68.3269 121.153 68.3269C120.076 68.3269 119.24 68.5547 118.648 68.9969C118.055 69.4525 117.759 70.0823 117.759 70.8997C117.759 72.0387 118.769 72.9901 120.789 73.7405C122.594 74.4105 123.847 75.1207 124.534 75.8577C125.221 76.5948 125.557 77.5864 125.557 78.8326C125.557 80.1458 125.046 81.2044 124.008 81.995C123.133 82.6516 122.082 82.9866 120.857 82.9866C119.267 82.9866 117.745 82.5042 116.277 81.5394L116.83 80.7488C118.136 81.459 119.389 81.8074 120.587 81.8074C121.665 81.8074 122.54 81.5394 123.2 81.0034C123.86 80.4674 124.184 79.7438 124.184 78.846C124.184 77.9482 123.928 77.1709 123.429 76.6081C122.891 76.0453 122.029 75.5495 120.816 75.1341C119.227 74.5981 118.082 74.0085 117.368 73.3385C116.654 72.6685 116.304 71.8645 116.304 70.9131C116.304 69.7607 116.776 68.8227 117.705 68.1125C118.54 67.4693 119.631 67.1477 120.978 67.1477C122.433 67.1477 123.739 67.5363 124.911 68.3001L124.305 69.0907V69.1041Z" fill="#15CB95"/>
<path d="M139.605 77.6534H131.658C131.685 78.9934 132.157 80.0654 133.059 80.8828C133.894 81.6064 134.958 81.9682 136.238 81.9682C137.315 81.9682 138.271 81.6734 139.08 81.0972L139.538 81.8476C138.568 82.6248 137.342 83 135.847 83C134.15 83 132.79 82.4238 131.753 81.258C130.837 80.2128 130.365 78.8862 130.365 77.2781C130.365 75.5763 130.864 74.1559 131.847 73.0035C132.749 71.9717 133.854 71.4625 135.174 71.4625C136.736 71.4625 137.921 72.1459 138.716 73.5127C139.309 74.5445 139.618 75.8041 139.618 77.3049V77.6399L139.605 77.6534ZM131.672 76.6885H138.393C138.366 75.3485 138.056 74.3167 137.49 73.5931C136.925 72.8561 136.143 72.4943 135.133 72.4943C134.19 72.4943 133.409 72.8829 132.763 73.6601C132.116 74.4373 131.753 75.4423 131.672 76.6885Z" fill="#15CB95"/>
<path d="M146.124 72.9902C147.255 71.9718 148.333 71.476 149.343 71.476C150.448 71.476 151.269 71.7976 151.821 72.4408L150.879 73.1912C150.34 72.7624 149.747 72.5346 149.087 72.5346C148.09 72.5346 147.134 73.084 146.232 74.1694V82.7052H145.087V71.7574H146.03L146.124 72.9902Z" fill="#15CB95"/>
<path d="M161.182 82.7186H159.795L155.7 71.7708H156.98L160.522 81.4188L163.984 71.7708H165.263L161.169 82.7186H161.182Z" fill="#15CB95"/>
<path d="M169.843 68.0187C169.843 67.7775 169.924 67.5765 170.099 67.4023C170.274 67.2281 170.476 67.1477 170.718 67.1477C170.961 67.1477 171.163 67.2281 171.338 67.4023C171.513 67.5765 171.594 67.7775 171.594 68.0187C171.594 68.2599 171.513 68.4609 171.338 68.6351C171.163 68.8093 170.961 68.8897 170.718 68.8897C170.476 68.8897 170.274 68.8093 170.099 68.6351C169.924 68.4609 169.843 68.2599 169.843 68.0187ZM171.27 71.7573V82.7052H170.126V71.7573H171.27Z" fill="#15CB95"/>
<path d="M185.938 81.9146C185.035 82.6382 183.863 83 182.422 83C180.698 83 179.311 82.4104 178.274 81.2178C177.385 80.1726 176.94 78.8594 176.94 77.2916C176.94 75.5228 177.52 74.0756 178.664 72.95C179.661 71.9718 180.873 71.476 182.274 71.476C183.675 71.476 184.82 71.8244 185.695 72.5078L185.237 73.1778C184.429 72.7222 183.567 72.5078 182.638 72.5078C181.183 72.5078 180.052 73.017 179.244 74.0488C178.57 74.9064 178.22 76.0052 178.22 77.3586C178.22 78.8058 178.651 79.9448 179.526 80.789C180.335 81.5796 181.426 81.9682 182.799 81.9682C183.742 81.9682 184.631 81.7136 185.493 81.191L185.924 81.9146H185.938Z" fill="#15CB95"/>
<path d="M199.771 77.6534H191.824C191.851 78.9934 192.323 80.0654 193.225 80.8828C194.06 81.6064 195.124 81.9682 196.404 81.9682C197.481 81.9682 198.437 81.6734 199.246 81.0972L199.704 81.8476C198.734 82.6248 197.508 83 196.013 83C194.316 83 192.956 82.4238 191.919 81.258C191.003 80.2128 190.531 78.8862 190.531 77.2781C190.531 75.5763 191.03 74.1559 192.013 73.0035C192.915 71.9717 194.02 71.4625 195.34 71.4625C196.902 71.4625 198.087 72.1459 198.882 73.5127C199.475 74.5445 199.784 75.8041 199.784 77.3049V77.6399L199.771 77.6534ZM191.838 76.6885H198.559C198.532 75.3485 198.222 74.3167 197.656 73.5931C197.091 72.8561 196.309 72.4943 195.299 72.4943C194.356 72.4943 193.575 72.8829 192.929 73.6601C192.282 74.4373 191.919 75.4423 191.838 76.6885Z" fill="#15CB95"/>
<path d="M210.788 73.0839C210.007 72.6953 209.145 72.5077 208.175 72.5077C207.448 72.5077 206.869 72.6551 206.451 72.9633C206.034 73.2715 205.818 73.7003 205.818 74.2363C205.818 74.8125 205.993 75.2547 206.357 75.5629C206.721 75.8711 207.434 76.1927 208.499 76.5277C209.778 76.9297 210.68 77.3853 211.206 77.8812C211.731 78.377 211.987 79.047 211.987 79.8778C211.987 80.789 211.637 81.5394 210.923 82.1156C210.209 82.6918 209.293 82.9866 208.189 82.9866C206.801 82.9866 205.576 82.6248 204.525 81.9012L204.835 81.2446C205.791 81.7136 206.801 81.9414 207.865 81.9414C209.778 81.9414 210.721 81.2312 210.721 79.8242C210.721 79.2882 210.519 78.8594 210.115 78.5378C209.711 78.2028 208.97 77.8812 207.906 77.5596C205.643 76.8627 204.512 75.7773 204.512 74.2765C204.512 73.4591 204.835 72.7757 205.481 72.2531C206.128 71.7171 206.963 71.4625 207.973 71.4625C209.118 71.4625 210.169 71.7707 211.125 72.4005L210.761 73.0705L210.788 73.0839Z" fill="#15CB95"/>
</g>
<defs>
<clipPath id="clip0_142_2005">
<rect width="212" height="83" fill="white"/>
</clipPath>
</defs>
</svg>
